<svg width="141" height="48" viewBox="0 0 141 48" fill="none" xmlns="http://www.w3.org/2000/svg">
    <path d="M40 39.1175L34.5416 17.4402L20 4L5.44785 17.3333L0 39.0107L10.3688 44H18.6091V36.5214C18.6091 36.5214 3.41412 44.6517 7.37619 26.4359C8.66175 20.3675 15.7218 12.344 19.6733 10.0684C19.7787 9.96154 19.8841 9.96154 20 9.8547C23.9515 11.8098 31.3382 20.1538 32.7292 26.4359C36.6807 44.6517 21.4963 36.5214 21.4963 36.5214V44H29.726L40 39.1175Z" fill="#FEAC00"/>
    <line x1="56.25" y1="1.09278e-08" x2="56.25" y2="48" stroke="white" stroke-opacity="0.3" stroke-width="0.5"/>
    <path d="M138.314 20.1151L133.093 11.7643V20.1151H131.62V9.76923H133.204L138.499 18.1835V9.76923H139.966V20.1151H138.314Z" fill="white"/>
    <path d="M129.476 9.76923V11.0234H123.706V14.1246H128.853V15.3788H123.706V18.8821H129.497V20.1151H122.233V9.76923H129.476Z" fill="white"/>
    <path d="M115.213 19.1149C115.477 19.1149 115.731 19.0744 115.974 18.9932C116.22 18.9121 116.449 18.8009 116.66 18.6598C116.871 18.5152 117.063 18.3423 117.235 18.1412C117.411 17.9401 117.561 17.7196 117.684 17.4797C117.807 17.2398 117.902 16.984 117.969 16.7124C118.04 16.4407 118.075 16.162 118.075 15.8762H115.266V14.622H119.542V20.1151H118.708L118.27 18.681C118.168 18.8221 118.033 18.9879 117.864 19.1784C117.695 19.3654 117.487 19.5453 117.241 19.7182C116.994 19.8876 116.707 20.0304 116.38 20.1469C116.053 20.2668 115.682 20.3268 115.266 20.3268C114.453 20.3268 113.737 20.1927 113.118 19.9246C112.502 19.653 111.986 19.279 111.571 18.8027C111.156 18.3264 110.842 17.7637 110.631 17.1145C110.42 16.4619 110.314 15.7527 110.314 14.9872C110.314 14.5038 110.362 14.0328 110.457 13.5742C110.552 13.1155 110.693 12.6834 110.879 12.2776C111.069 11.8719 111.303 11.4997 111.581 11.161C111.859 10.8223 112.181 10.5313 112.548 10.2878C112.914 10.0444 113.324 9.85565 113.778 9.72159C114.232 9.58399 114.728 9.5152 115.266 9.5152C115.696 9.5152 116.1 9.56459 116.48 9.66337C116.864 9.76216 117.216 9.89799 117.536 10.0709C117.857 10.2437 118.143 10.4466 118.397 10.6794C118.65 10.9088 118.865 11.1575 119.041 11.4256C119.22 11.6937 119.356 11.9725 119.447 12.2618C119.542 12.5475 119.59 12.8315 119.59 13.1138H118.085C118.085 12.948 118.054 12.7733 117.99 12.5899C117.927 12.4064 117.835 12.2282 117.716 12.0554C117.6 11.879 117.455 11.7132 117.283 11.5579C117.114 11.3992 116.924 11.2598 116.713 11.1398C116.505 11.0199 116.276 10.9246 116.026 10.8541C115.78 10.7835 115.52 10.7482 115.245 10.7482C114.844 10.7482 114.48 10.8012 114.152 10.907C113.829 11.0128 113.538 11.161 113.281 11.3515C113.024 11.5385 112.801 11.7608 112.611 12.0183C112.424 12.2759 112.269 12.5581 112.146 12.865C112.023 13.172 111.932 13.4966 111.872 13.8388C111.812 14.1775 111.782 14.5232 111.782 14.876C111.782 15.4546 111.852 16.0015 111.993 16.5165C112.138 17.0281 112.352 17.4779 112.637 17.866C112.926 18.2506 113.285 18.5557 113.714 18.7815C114.144 19.0038 114.643 19.1149 115.213 19.1149Z" fill="white"/>
    <path d="M101.134 11.0234V9.76923H109.163V11.0234H105.864V20.1151H104.391V11.0234H101.134Z" fill="white"/>
    <path d="M91.8594 9.76923H93.6332L96.183 13.7541L98.8436 9.76923H100.454L96.996 14.7966L100.67 20.1151H98.907L96.1619 15.9397L93.327 20.1151H91.6641L95.275 14.7966L91.8594 9.76923Z" fill="white"/>
    <path d="M90.7088 9.76923V11.0234H84.9387V14.1246H90.0858V15.3788H84.9387V18.8821H90.7299V20.1151H83.4658V9.76923H90.7088Z" fill="white"/>
    <path d="M79.0845 20.1151L73.8635 11.7643V20.1151H72.3906V9.76923H73.9744L79.2693 18.1835V9.76923H80.7369V20.1151H79.0845Z" fill="white"/>
    <path d="M133.629 34.7419C133.629 35.0552 133.686 35.3209 133.798 35.5391C133.911 35.7573 134.064 35.935 134.257 36.0723C134.451 36.206 134.676 36.3046 134.933 36.3679C135.19 36.4277 135.461 36.4576 135.746 36.4576C135.929 36.4576 136.128 36.4436 136.343 36.4154C136.561 36.3873 136.763 36.3345 136.95 36.257C137.136 36.1796 137.291 36.0705 137.414 35.9297C137.541 35.789 137.604 35.6042 137.604 35.3754C137.604 35.1537 137.532 34.9654 137.388 34.8106C137.247 34.6557 137.052 34.5202 136.802 34.4041C136.556 34.2844 136.263 34.1788 135.926 34.0873C135.591 33.9923 135.232 33.8938 134.849 33.7917C134.585 33.7213 134.312 33.6421 134.03 33.5541C133.752 33.4662 133.48 33.3623 133.212 33.2427C132.948 33.123 132.697 32.9858 132.457 32.8309C132.221 32.676 132.014 32.4983 131.834 32.2977C131.658 32.0971 131.518 31.8683 131.412 31.6114C131.31 31.3545 131.259 31.0659 131.259 30.7457C131.259 30.3832 131.315 30.0559 131.428 29.7637C131.54 29.4681 131.695 29.2059 131.892 28.9772C132.089 28.7484 132.325 28.5513 132.6 28.3859C132.874 28.217 133.173 28.0797 133.497 27.9741C133.821 27.865 134.162 27.7858 134.521 27.7366C134.884 27.6838 135.253 27.6574 135.63 27.6574C136.042 27.6574 136.438 27.6855 136.818 27.7418C137.198 27.7982 137.552 27.8861 137.879 28.0058C138.21 28.1219 138.511 28.2715 138.782 28.4545C139.053 28.6375 139.285 28.854 139.478 29.1039C139.672 29.3537 139.822 29.6406 139.927 29.9643C140.033 30.2846 140.086 30.6436 140.086 31.0413H137.404C137.386 30.7844 137.328 30.5679 137.23 30.392C137.131 30.216 137.001 30.0734 136.839 29.9643C136.677 29.8552 136.487 29.7778 136.269 29.7321C136.051 29.6863 135.815 29.6634 135.561 29.6634C135.371 29.6634 135.192 29.6793 135.023 29.711C134.854 29.7391 134.704 29.7884 134.574 29.8588C134.447 29.9292 134.345 30.0242 134.268 30.1438C134.194 30.26 134.157 30.4043 134.157 30.5767C134.157 30.6612 134.169 30.7421 134.194 30.8196C134.222 30.897 134.273 30.9727 134.347 31.0466C134.425 31.1205 134.53 31.1961 134.664 31.2736C134.801 31.351 134.977 31.4319 135.192 31.5164C135.41 31.6009 135.672 31.6906 135.978 31.7856C136.288 31.8807 136.654 31.9845 137.076 32.0971C137.207 32.1323 137.376 32.1781 137.583 32.2344C137.794 32.2907 138.018 32.3681 138.254 32.4666C138.493 32.5617 138.732 32.6831 138.972 32.8309C139.215 32.9752 139.433 33.1564 139.626 33.3746C139.82 33.5893 139.978 33.8445 140.101 34.1401C140.225 34.4322 140.286 34.7736 140.286 35.1643C140.286 35.6605 140.191 36.1127 140.001 36.521C139.811 36.9292 139.524 37.2794 139.141 37.5715C138.757 37.8601 138.275 38.0836 137.694 38.242C137.117 38.4039 136.439 38.4848 135.662 38.4848C135.236 38.4848 134.822 38.4514 134.421 38.3845C134.023 38.3176 133.649 38.2156 133.297 38.0783C132.948 37.9411 132.628 37.7704 132.336 37.5663C132.047 37.3586 131.799 37.1175 131.591 36.843C131.384 36.565 131.224 36.2518 131.111 35.9033C130.998 35.5514 130.944 35.1643 130.947 34.7419H133.629Z" fill="white"/>
    <path d="M119.824 36.2254C119.923 36.2254 120.039 36.2218 120.173 36.2148C120.307 36.2042 120.449 36.1831 120.6 36.1514C120.752 36.1198 120.908 36.074 121.07 36.0142C121.232 35.9508 121.391 35.8664 121.545 35.7608C121.7 35.6552 121.846 35.525 121.984 35.3701C122.121 35.2118 122.241 35.0235 122.343 34.8053C122.448 34.5836 122.531 34.3266 122.591 34.0345C122.651 33.7389 122.68 33.4028 122.68 33.0262C122.68 32.5194 122.633 32.0742 122.538 31.6906C122.443 31.3035 122.286 30.9814 122.068 30.7245C121.85 30.4641 121.561 30.2688 121.202 30.1385C120.843 30.0048 120.398 29.9379 119.867 29.9379H118.505V36.2254H119.824ZM119.846 27.9108C120.694 27.9108 121.457 28.0076 122.137 28.2011C122.819 28.3912 123.398 28.6886 123.874 29.0933C124.352 29.4945 124.72 30.0066 124.977 30.6295C125.234 31.2489 125.362 31.9862 125.362 32.8414C125.362 33.7248 125.25 34.5026 125.024 35.1748C124.799 35.847 124.458 36.4101 124 36.8641C123.543 37.3146 122.967 37.656 122.274 37.8883C121.584 38.117 120.775 38.2314 119.846 38.2314H115.802V27.9108H119.846Z" fill="white"/>
    <path d="M106.161 35.9297H102.656L101.838 38.2314H99.0029L102.983 27.9108H105.882L109.857 38.2314H106.98L106.161 35.9297ZM103.263 34.2351H105.554L104.43 31.0413L103.263 34.2351Z" fill="white"/>
    <path d="M93.4285 27.9108V29.9855H88.1072V31.8754H92.9323V33.9078H88.1072V36.1831H93.4496V38.2314H85.4043V27.9108H93.4285Z" fill="white"/>
    <path d="M74.724 27.9108V36.0723H79.3485V38.2314H72V27.9108H74.724Z" fill="white"/>
</svg>